name C:\Users\r0593348\3dpredictsim\Results\MidTarsalJoint\Fal_s1_bCst_PF_Natali2010_ls150_MT_k250_d050_MTP_T5_ig24.mot
datacolumns 128
datarows 4
range 1.68215435 1.71579743
endheader
time	pelvis_tilt	pelvis_list	pelvis_rotation	pelvis_tx	pelvis_ty	pelvis_tz	hip_flexion_l	hip_adduction_l	hip_rotation_l	hip_flexion_r	hip_adduction_r	hip_rotation_r	knee_angle_l	knee_angle_r	ankle_angle_l	ankle_angle_r	subtalar_angle_l	subtalar_angle_r	tmt_angle_l	tmt_angle_r	mtp_angle_l	mtp_angle_r	lumbar_extension	lumbar_bending	lumbar_rotation	arm_flex_l	arm_add_l	arm_rot_l	arm_flex_r	arm_add_r	arm_rot_r	elbow_flex_l	elbow_flex_r	pro_sup_l	pro_sup_r	glut_med1_l/activation	glut_med2_l/activation	glut_med3_l/activation	glut_min1_l/activation	glut_min2_l/activation	glut_min3_l/activation	semimem_l/activation	semiten_l/activation	bifemlh_l/activation	bifemsh_l/activation	sar_l/activation	add_long_l/activation	add_brev_l/activation	add_mag1_l/activation	add_mag2_l/activation	add_mag3_l/activation	tfl_l/activation	pect_l/activation	grac_l/activation	glut_max1_l/activation	glut_max2_l/activation	glut_max3_l/activation	iliacus_l/activation	psoas_l/activation	quad_fem_l/activation	gem_l/activation	peri_l/activation	rect_fem_l/activation	vas_med_l/activation	vas_int_l/activation	vas_lat_l/activation	med_gas_l/activation	lat_gas_l/activation	soleus_l/activation	tib_post_l/activation	flex_dig_l/activation	flex_hal_l/activation	tib_ant_l/activation	per_brev_l/activation	per_long_l/activation	per_tert_l/activation	ext_dig_l/activation	ext_hal_l/activation	ercspn_l/activation	intobl_l/activation	extobl_l/activation	glut_med1_r/activation	glut_med2_r/activation	glut_med3_r/activation	glut_min1_r/activation	glut_min2_r/activation	glut_min3_r/activation	semimem_r/activation	semiten_r/activation	bifemlh_r/activation	bifemsh_r/activation	sar_r/activation	add_long_r/activation	add_brev_r/activation	add_mag1_r/activation	add_mag2_r/activation	add_mag3_r/activation	tfl_r/activation	pect_r/activation	grac_r/activation	glut_max1_r/activation	glut_max2_r/activation	glut_max3_r/activation	iliacus_r/activation	psoas_r/activation	quad_fem_r/activation	gem_r/activation	peri_r/activation	rect_fem_r/activation	vas_med_r/activation	vas_int_r/activation	vas_lat_r/activation	med_gas_r/activation	lat_gas_r/activation	soleus_r/activation	tib_post_r/activation	flex_dig_r/activation	flex_hal_r/activation	tib_ant_r/activation	per_brev_r/activation	per_long_r/activation	per_tert_r/activation	ext_dig_r/activation	ext_hal_r/activation	ercspn_r/activation	intobl_r/activation	extobl_r/activation	
          1.68215435	         -1.81802687	         -3.35247084	          7.87733204	          2.00581271	          0.88892184	         -0.00496804	         -3.46523203	         -5.66042590	         -2.41137564	         20.29377914	          7.31825037	          4.05796727	        -44.17042291	        -17.39480863	        -13.47099284	         -3.91303241	         13.75576472	         -4.47434215	          0.40123230	          4.25942462	         -1.80642897	          6.69304583	         -3.08661831	          1.64261060	         -1.44014745	         12.88227439	        -28.91123083	          3.93721849	         -1.41191243	        -31.91241604	          2.53154479	         60.01305591	         37.84317294	         86.51662706	         86.51662706	          0.55739670	          0.42779707	          0.31043241	          0.50681137	          0.47925361	          0.43786754	          0.39163482	          0.54945575	          0.44164654	          0.61210116	          0.47822168	          0.42426602	          0.40595544	          0.39955356	          0.41469249	          0.41001378	          0.45747322	          0.44156123	          0.46835224	          0.39659158	          0.39372217	          0.35246892	          0.51462322	          0.50910014	          0.31658348	          0.40820622	          0.39750575	          0.27019525	          0.22848122	          0.22566355	          0.19038407	          0.38098622	          0.40783853	          0.18785030	          0.32089414	          0.40806938	          0.40944603	          0.57994088	          0.45847332	          0.42285762	          0.47997330	          0.56147517	          0.48108705	          0.46360336	          0.36910392	          0.40893992	          0.47322132	          0.45399002	          0.44079423	          0.45183383	          0.44871373	          0.44615652	          0.46889392	          0.46601214	          0.47617077	          0.42744996	          0.43024422	          0.43865869	          0.45633601	          0.43501209	          0.43959677	          0.47363369	          0.43345715	          0.43285839	          0.44829854	          0.44936882	          0.46321913	          0.47680248	          0.38994186	          0.39214935	          0.43525183	          0.43882650	          0.43697576	          0.40738459	          0.46143231	          0.45927455	          0.46100908	          0.39731870	          0.42309356	          0.37612540	          0.43856507	          0.44462735	          0.44357233	          0.46539766	          0.44461409	          0.43733537	          0.44826983	          0.45744203	          0.44947029	          0.51509550	          0.47461468	          0.43233866	
          1.69336871	         -1.77205150	         -3.36903972	          7.78536915	          2.01988054	          0.89100271	         -0.00542357	         -2.21455756	         -5.89930606	         -2.85100108	         19.21590500	          7.52840376	          4.48029910	        -45.91880488	        -17.29626908	        -12.49056366	         -3.95550568	         12.63538277	         -4.60194458	          0.35360566	          4.45238644	         -1.95952096	          7.27273741	         -3.04680845	          1.87834489	         -1.30149707	         12.72141784	        -28.92201770	          3.90241154	         -1.39470791	        -31.89066410	          2.53336952	         59.85394329	         37.87765917	         86.51662706	         86.51662706	          0.54537658	          0.42541668	          0.31951968	          0.49869076	          0.47399925	          0.43713238	          0.39124449	          0.54213014	          0.44011580	          0.60250443	          0.47528981	          0.43648378	          0.41731530	          0.40904954	          0.41908811	          0.41420843	          0.45556688	          0.44405514	          0.47087859	          0.39839689	          0.39697707	          0.35830674	          0.50980877	          0.50354722	          0.33375991	          0.41333058	          0.40402178	          0.28226568	          0.23055170	          0.22668208	          0.18990341	          0.36153268	          0.39866531	          0.16767458	          0.32075568	          0.40909839	          0.40981370	          0.59197247	          0.44676571	          0.39945590	          0.48462462	          0.56053059	          0.48368985	          0.46836614	          0.36511581	          0.41204315	          0.47382874	          0.45556520	          0.44287681	          0.45242260	          0.44961648	          0.44721415	          0.46493713	          0.46337723	          0.47196265	          0.42983775	          0.43232360	          0.43608243	          0.45196790	          0.43224206	          0.43663577	          0.46879982	          0.43628757	          0.43319132	          0.44699168	          0.44898334	          0.46136015	          0.47128300	          0.39369144	          0.39622686	          0.43393971	          0.43931403	          0.43804679	          0.41214259	          0.45830575	          0.45636255	          0.45739269	          0.39598194	          0.42269298	          0.37076058	          0.44039018	          0.44507868	          0.44403285	          0.46753057	          0.44375995	          0.43528697	          0.44819293	          0.45749915	          0.44948285	          0.51073361	          0.47893563	          0.42860808	
          1.70458307	         -1.71735838	         -3.36075962	          7.67540394	          2.03356725	          0.89319015	         -0.00590469	         -0.79519563	         -6.05101495	         -3.17418168	         18.08205677	          7.69494029	          4.91735841	        -47.74991575	        -17.08316208	        -11.69458433	         -3.96297522	         11.83490741	         -4.67959860	          0.18470921	          4.60273093	         -2.01399359	          7.69819171	         -3.04726075	          2.10744666	         -1.15517677	         12.53843501	        -28.93822202	          3.85934022	         -1.35322482	        -31.85894413	          2.52844708	         59.63833800	         37.94334502	         86.51662706	         86.51662706	          0.53708591	          0.43246463	          0.33991627	          0.49229330	          0.47146342	          0.44012541	          0.39033098	          0.51962996	          0.43517164	          0.57014929	          0.46989534	          0.43583292	          0.42156007	          0.41416702	          0.42173971	          0.41888536	          0.45484772	          0.44409383	          0.46477849	          0.40102377	          0.40184327	          0.36730708	          0.49599423	          0.49011721	          0.34986985	          0.41791052	          0.41222145	          0.32325221	          0.27041458	          0.26543035	          0.23064345	          0.34982530	          0.39545223	          0.15608586	          0.36387445	          0.41317369	          0.41502758	          0.59701518	          0.42981691	          0.37477987	          0.47676382	          0.54242644	          0.48162607	          0.47328178	          0.36272201	          0.41137779	          0.47521849	          0.45586578	          0.44290661	          0.45274066	          0.45009874	          0.44774380	          0.46195306	          0.46126168	          0.46864910	          0.43156309	          0.43442909	          0.43465147	          0.44907939	          0.42985284	          0.43393990	          0.46516680	          0.43869135	          0.43375027	          0.44594146	          0.44768748	          0.45846932	          0.46634869	          0.39800602	          0.40014360	          0.43241401	          0.43930146	          0.43818184	          0.41593805	          0.45584959	          0.45406329	          0.45449813	          0.39455676	          0.42227976	          0.36649815	          0.44234219	          0.44549885	          0.44451241	          0.46972135	          0.44260220	          0.43290272	          0.44803368	          0.45742806	          0.44953672	          0.51673660	          0.47982889	          0.42762231	
          1.71579743	         -1.65668547	         -3.34709533	          7.54893882	          2.04701328	          0.89544428	         -0.00646933	          0.66533521	         -6.08077516	         -3.29285145	         16.88421320	          7.83048196	          5.35773628	        -49.46030461	        -16.74421276	        -11.12313642	         -3.95163751	         10.93808949	         -4.70991305	         -0.06911083	          4.72020174	         -1.60798067	          7.96802323	         -3.05941708	          2.35829563	         -1.00928385	         12.32551550	        -28.95951243	          3.83857398	         -1.28685141	        -31.82373177	          2.51373350	         59.36673953	         38.04139744	         86.51662706	         86.51662706	          0.52727847	          0.44200781	          0.36648231	          0.48559557	          0.46932934	          0.44396899	          0.38964489	          0.50408121	          0.43204544	          0.54385488	          0.46517733	          0.43293485	          0.42323812	          0.41801550	          0.42377270	          0.42236201	          0.45359524	          0.44336244	          0.45956934	          0.40428118	          0.40781811	          0.37838454	          0.48328806	          0.47871484	          0.36673058	          0.42157051	          0.41993263	          0.34842143	          0.30287338	          0.29694129	          0.26343267	          0.33881079	          0.39265303	          0.14833902	          0.40624481	          0.41769986	          0.42038200	          0.60059972	          0.41200192	          0.35108330	          0.46731457	          0.52717324	          0.48037008	          0.47689763	          0.36814465	          0.41182735	          0.47912128	          0.45709737	          0.44262729	          0.45418964	          0.45132027	          0.44862655	          0.45950290	          0.45946842	          0.46572769	          0.43313196	          0.43594298	          0.43277744	          0.44618873	          0.42764663	          0.43139215	          0.46198028	          0.44123193	          0.43426343	          0.44483213	          0.44633532	          0.45551970	          0.46136783	          0.40162565	          0.40336353	          0.42912156	          0.43883149	          0.43822977	          0.41885439	          0.45351388	          0.45185481	          0.45168912	          0.39314953	          0.42188039	          0.36273046	          0.44408470	          0.44583065	          0.44494377	          0.47228543	          0.44113322	          0.43034236	          0.44778945	          0.45736280	          0.44968175	          0.51686693	          0.47414162	          0.42707060	
